<svg width="50" height="50" viewBox="0 0 50 50" fill="none" xmlns="http://www.w3.org/2000/svg">
<path d="M50 39.2852C50 40.9176 48.6768 42.2409 47.0444 42.2409H2.95557C1.32324 42.241 0 40.9176 0 39.2852V10.7145C0 9.08213 1.32324 7.75879 2.95557 7.75879H47.0444C48.6769 7.75879 50 9.08213 50 10.7145V39.2852Z" fill="#306FC5"/>
<path opacity="0.15" d="M2.10127 39.2852V10.7145C2.10127 9.08213 3.42471 7.75879 5.05703 7.75879H2.95547C1.32324 7.75879 0 9.08203 0 10.7145V39.2853C0 40.9177 1.32324 42.241 2.95557 42.241H5.05713C3.4248 42.241 2.10127 40.9176 2.10127 39.2852Z" fill="#202121"/>
<path d="M7.2843 21.5571H8.77825L8.03147 19.6558L7.2843 21.5571Z" fill="white"/>
<path d="M15.2289 27.9397V28.8226H17.7415V29.7735H15.2289V30.7923H18.013L19.3031 29.366L18.0809 27.9397H15.2289Z" fill="white"/>
<path d="M34.8535 19.6558L34.0386 21.5571H35.6006L34.8535 19.6558Z" fill="white"/>
<path d="M22.4954 31.3351V27.4646L20.7297 29.3661L22.4954 31.3351Z" fill="white"/>
<path d="M25.8223 28.5511C25.7544 28.1437 25.4825 27.9397 25.0749 27.9397H23.6492V29.162H25.1432C25.5505 29.1621 25.8223 28.9584 25.8223 28.5511Z" fill="white"/>
<path d="M30.5751 29.0262C30.7109 28.9582 30.7791 28.7542 30.7791 28.5509C30.8471 28.2795 30.7109 28.1435 30.5751 28.0755C30.4396 28.0076 30.2356 28.0076 30.0322 28.0076H28.6738V29.0942H30.0321C30.2355 29.0942 30.4395 29.0942 30.5751 29.0262Z" fill="white"/>
<path d="M40.3532 17.8901V18.705L39.946 17.8901H36.7548V18.705L36.3472 17.8901H32.0013C31.2544 17.8901 30.643 18.0261 30.1 18.2977V17.8901H27.0445V17.9581V18.2977C26.705 18.0262 26.2976 17.8901 25.7543 17.8901H14.8217L14.0745 19.5878L13.3277 17.8901H10.8833H9.8646V18.705L9.52505 17.8901H9.45708H6.53726L5.17896 21.0815L3.61733 24.5446L3.58862 24.6127H3.61733H7.08052H7.12388L7.14849 24.5446L7.5561 23.5263H8.43882L8.84624 24.6127H12.7843V24.5446V23.7979L13.1241 24.6126H15.0931L15.4325 23.7979V24.5446V24.6127H16.9943H24.8034H24.8713V22.8471H25.0075C25.1431 22.8471 25.1431 22.8471 25.1431 23.0509V24.5447H30.0323V24.1373C30.4397 24.3413 31.0504 24.5447 31.8654 24.5447H33.9028L34.3102 23.4585H35.2606L35.668 24.5447H39.6063V23.8658V23.5264L40.2177 24.5447H40.3532H40.4213H43.4091V17.8901H40.3534H40.3532ZM17.334 23.5943H16.6548H16.2475V23.1872V19.8595L16.1795 20.0152V20.0134L14.5999 23.5943H14.5499H14.1867H13.5991L11.9695 19.8595V23.5943H9.66089L9.1856 22.5758H6.87661L6.40122 23.5943H5.20757L7.21636 18.8409H8.91382L10.8151 23.3904V18.8409H11.2224H12.6141L12.6461 18.909H12.6485L13.5052 20.7736L14.1205 22.1707L14.1422 22.1003L15.5002 18.841H17.3339V23.5943H17.334ZM22.0196 19.8595H19.3712V20.7422H21.9516V21.6928H19.3712V22.6438H22.0196V23.662H18.2169V18.841H22.0196V19.8595ZM26.8628 21.6105C26.8646 21.612 26.8668 21.6131 26.869 21.6146C26.8947 21.6417 26.9167 21.6689 26.9354 21.695C27.0655 21.8655 27.1707 22.1191 27.1759 22.491C27.1763 22.4975 27.1766 22.5038 27.177 22.5103C27.177 22.514 27.1777 22.5172 27.1777 22.521C27.1777 22.5231 27.1775 22.5248 27.1775 22.5269C27.1791 22.5643 27.18 22.6024 27.18 22.6438V23.5944H26.1617V23.051C26.1617 22.7794 26.1617 22.3719 25.9577 22.1003C25.8935 22.0361 25.8286 21.9938 25.7579 21.9638C25.6561 21.8979 25.4632 21.8968 25.1431 21.8968H23.9205V23.5944H22.7664V18.841H25.3469C25.9577 18.841 26.3653 18.841 26.7049 19.0447C27.0376 19.2445 27.2386 19.5759 27.2462 20.1006C27.2305 20.8232 26.7666 21.2197 26.4332 21.3534C26.4332 21.3534 26.6597 21.399 26.8628 21.6105ZM29.1495 23.5943H27.995V18.8409H29.1495V23.5943ZM42.3909 23.5943H40.8967L38.7239 19.9952V22.983L38.7167 22.976V23.5973H37.5696V23.5944H36.4151L36.0077 22.5759H33.6308L33.2234 23.6621H31.9333C31.3904 23.6621 30.7109 23.5265 30.3037 23.119C29.8962 22.7116 29.6927 22.1684 29.6927 21.2857C29.6927 20.6067 29.8284 19.9272 30.3037 19.3842C30.6429 18.9765 31.2543 18.841 32.0011 18.841H33.0878V19.8595H32.0011C31.5937 19.8595 31.3904 19.9271 31.1182 20.1313C30.9149 20.3349 30.779 20.7422 30.779 21.2175C30.779 21.7608 30.8469 22.1003 31.1182 22.3719C31.3224 22.5759 31.5938 22.6438 31.9333 22.6438H32.4085L33.9702 18.9092H34.6496H35.6679L37.5695 23.4587V23.2267V21.693V21.5573V18.9093H39.2669L41.2358 22.2364V18.9093H42.3907V23.5945H42.3909V23.5943Z" fill="white"/>
<path d="M25.8944 20.8206C25.9142 20.7994 25.9322 20.7754 25.9474 20.7479C26.0089 20.6505 26.0794 20.4751 26.0415 20.2357C26.0399 20.2138 26.0359 20.1935 26.0312 20.1738C26.0299 20.1684 26.0301 20.1636 26.0287 20.1581L26.028 20.1582C25.9942 20.0419 25.908 19.9704 25.8219 19.9271C25.6858 19.8594 25.4821 19.8594 25.2785 19.8594H23.9202V20.946H25.2785C25.4821 20.946 25.6859 20.946 25.8219 20.8779C25.8423 20.8676 25.8605 20.8535 25.878 20.8376L25.8782 20.8385C25.8783 20.8384 25.8852 20.8312 25.8944 20.8206Z" fill="white"/>
<path d="M46.3967 30.3845C46.3967 29.9092 46.2611 29.4337 46.0575 29.0942V26.0387H46.0543V25.8347C46.0543 25.8347 43.2082 25.8347 42.7845 25.8347C42.3611 25.8347 41.8472 26.242 41.8472 26.242V25.8347H38.7238C38.2482 25.8347 37.6375 25.9706 37.3655 26.242V25.8347H31.7975V26.0387V26.2419C31.3904 25.9026 30.6428 25.8346 30.3036 25.8346H26.6367V26.0386V26.2418C26.2972 25.9025 25.482 25.8345 25.0744 25.8345H21.0007L20.0499 26.8531L19.167 25.8345H18.8828H18.4202H13.0559V26.0385V26.5749V32.6932H19.0315L20.0133 31.711L20.8644 32.6932H20.9326H24.3757H24.5318H24.5998H24.6673V32.0142V31.1314H25.0071C25.482 31.1314 26.0934 31.1314 26.5687 30.9274V32.6249V32.761H29.6245V32.6249V30.9954H29.7599C29.9639 30.9954 29.9639 30.9954 29.9639 31.1991V32.6249V32.761H39.1986C39.8102 32.761 40.4209 32.6249 40.7604 32.3533V32.6249V32.761H43.6805C44.2913 32.761 44.9029 32.6932 45.3103 32.4214C45.9355 32.0463 46.3295 31.3823 46.3881 30.5904C46.3909 30.567 46.3943 30.5436 46.3964 30.52L46.3924 30.5162C46.395 30.4723 46.3967 30.4288 46.3967 30.3845ZM25.0072 29.9771H23.6488V30.1804V30.588V30.9955V31.7425H21.4168L20.1178 30.2484L20.1133 30.2534L20.0499 30.1804L18.556 31.7425H14.2102V26.9893H18.624L19.8298 28.3101L20.0833 28.5866L20.1177 28.551L21.5439 26.9894H25.1427C25.8412 26.9894 26.6233 27.1617 26.9197 27.8724C26.9553 28.0131 26.976 28.1695 26.976 28.3473C26.976 29.7053 26.0253 29.9771 25.0072 29.9771ZM31.7975 29.9091C31.9332 30.1123 32.0011 30.3844 32.0011 30.792V31.7424H30.8469V31.1314C30.8469 30.8594 30.8469 30.3844 30.6429 30.1804C30.5075 29.9771 30.2355 29.9771 29.8284 29.9771H28.6062V31.7425H27.4519V26.9213H30.0321C30.575 26.9213 31.0502 26.9213 31.3904 27.1248C31.7296 27.3287 32.0011 27.6683 32.0011 28.2115C32.0011 28.9583 31.526 29.3657 31.1864 29.5018C31.526 29.637 31.7296 29.7732 31.7975 29.9091ZM36.4831 27.9395H33.8344V28.8223H36.4149V29.7731H33.8344V30.7239H36.4831V31.7424H32.6804V26.9212H36.4831V27.9395ZM39.3348 31.7425H37.1618V30.724H39.3348C39.5381 30.724 39.6743 30.724 39.8104 30.5881C39.8784 30.52 39.9458 30.3845 39.9458 30.2485C39.9458 30.1124 39.8784 29.9772 39.8104 29.9092C39.7422 29.8413 39.6062 29.7733 39.4026 29.7733C38.3161 29.7054 37.0259 29.7733 37.0259 28.2796C37.0259 27.6005 37.4333 26.8534 38.6557 26.8534H40.8964V28.0076H38.7916C38.5879 28.0076 38.4519 28.0076 38.316 28.0756C38.1805 28.1437 38.1805 28.2796 38.1805 28.4152C38.1805 28.619 38.316 28.687 38.4518 28.7544C38.5879 28.8225 38.7236 28.8225 38.8592 28.8225H39.4705C40.0817 28.8225 40.489 28.9583 40.7606 29.23C40.9644 29.4338 41.1002 29.7733 41.1002 30.2485C41.1002 31.2668 40.4891 31.7425 39.3348 31.7425ZM45.1746 31.2668C44.9033 31.5388 44.4277 31.7425 43.7484 31.7425H41.5759V30.724H43.7483C43.9521 30.724 44.0882 30.724 44.2239 30.5881C44.2916 30.52 44.3597 30.3845 44.3597 30.2485C44.3597 30.1124 44.2916 29.9772 44.2239 29.9092C44.1559 29.8413 44.0203 29.7733 43.8165 29.7733C42.7303 29.7054 41.4398 29.7733 41.4398 28.2797C41.4398 27.6343 41.809 27.0513 42.7197 26.8781C42.8286 26.8631 42.9436 26.8534 43.0696 26.8534H45.3106V28.0076H43.8165H43.2734H43.2054C43.0016 28.0076 42.866 28.0076 42.7303 28.0756C42.662 28.1437 42.594 28.2796 42.594 28.4152C42.594 28.619 42.662 28.687 42.866 28.7544C43.0016 28.8225 43.1375 28.8225 43.2734 28.8225H43.3409H43.8843C44.1811 28.8225 44.4055 28.8591 44.6109 28.9312C44.799 28.9993 45.4216 29.2778 45.5609 30.0049C45.573 30.0811 45.5819 30.1605 45.5819 30.2485C45.5819 30.6561 45.446 30.9955 45.1746 31.2668Z" fill="white"/>
</svg>
