<svg width="59" height="45" viewBox="0 0 59 45" fill="none" xmlns="http://www.w3.org/2000/svg">
<g filter="url(#filter0_d)">
<path d="M43.6585 11.3051L41.8025 14.4364L36.1212 12.5543L25.9492 29.7163L21.7297 28.3185L31.9017 11.1565L26.2203 9.27441L28.0762 6.1431L43.6585 11.3051Z" fill="#FC9D9D"/>
</g>
<path d="M57.1911 10.1116C55.9471 9.90648 54.7182 10.4938 54.4441 11.423L50.4552 24.942C49.9855 26.5339 48.1444 27.6457 45.9779 27.6457C44.705 27.6457 43.6732 28.4171 43.6732 29.3687C43.6732 30.3203 44.705 31.0917 45.9779 31.0917C48.0707 31.0917 50.1186 30.5512 51.7445 29.5697C53.365 28.5913 54.5058 27.2115 54.9564 25.6842L58.9452 12.1652C59.2195 11.236 58.4342 10.3165 57.1911 10.1116Z" fill="#001E67"/>
<path d="M45.9782 34.6246H15.787C14.5162 34.6246 13.4823 33.8517 13.4823 32.9016C13.4823 32.8871 13.4799 32.873 13.4794 32.8586C13.4799 32.8441 13.4823 32.83 13.4823 32.8155C13.4823 31.8654 14.5162 31.0925 15.787 31.0925H34.4548C35.7277 31.0925 36.7595 30.3211 36.7595 29.3695C36.7595 28.4179 35.7277 27.6465 34.4548 27.6465H17.5087L14.7789 8.89762L14.7728 8.85988C13.9547 4.19752 8.59441 0.68165 2.30469 0.68165C1.03181 0.68165 0 1.45304 0 2.40465C0 3.35627 1.03181 4.12766 2.30469 4.12766C6.28096 4.12766 9.67081 6.34594 10.1995 9.29038L12.9392 28.1071C10.5438 28.9201 8.87293 30.724 8.87293 32.8154C8.87293 32.83 8.87535 32.844 8.87581 32.8585C8.87535 32.8729 8.87293 32.887 8.87293 32.9015C8.87293 35.7517 11.9746 38.0706 15.787 38.0706H16.727C16.4923 38.5846 16.3632 39.1348 16.3632 39.7074C16.3632 42.5101 19.4132 44.7903 23.162 44.7903C26.9108 44.7903 29.9608 42.5101 29.9608 39.7074C29.9608 39.1348 29.8316 38.5846 29.597 38.0706H39.5432C39.3086 38.5846 39.1795 39.1348 39.1795 39.7074C39.1795 42.5101 42.2295 44.7903 45.9783 44.7903C49.7271 44.7903 52.7771 42.5101 52.7771 39.7074C52.7769 36.9047 49.727 34.6245 45.9782 34.6246ZM23.1619 41.3442C21.9546 41.3442 20.9724 40.6099 20.9724 39.7073C20.9724 38.8047 21.9546 38.0705 23.1619 38.0705C24.3692 38.0705 25.3513 38.8047 25.3513 39.7073C25.3513 40.6099 24.3692 41.3442 23.1619 41.3442ZM45.9782 41.3442C44.7709 41.3442 43.7887 40.6099 43.7887 39.7073C43.7887 38.8047 44.7709 38.0705 45.9782 38.0705C47.1855 38.0705 48.1676 38.8047 48.1676 39.7073C48.1676 40.6099 47.1855 41.3442 45.9782 41.3442Z" fill="#001E67"/>
<defs>
<filter id="filter0_d" x="19.7297" y="4.1431" width="29.9288" height="31.5732" filterUnits="userSpaceOnUse" color-interpolation-filters="sRGB">
<feFlood flood-opacity="0" result="BackgroundImageFix"/>
<feColorMatrix in="SourceAlpha" type="matrix" values="0 0 0 0 0 0 0 0 0 0 0 0 0 0 0 0 0 0 127 0" result="hardAlpha"/>
<feOffset dx="2" dy="2"/>
<feGaussianBlur stdDeviation="2"/>
<feColorMatrix type="matrix" values="0 0 0 0 0.8875 0 0 0 0 0.547292 0 0 0 0 0.547292 0 0 0 0.57 0"/>
<feBlend mode="normal" in2="BackgroundImageFix" result="effect1_dropShadow"/>
<feBlend mode="normal" in="SourceGraphic" in2="effect1_dropShadow" result="shape"/>
</filter>
</defs>
</svg>
