<svg width="50" height="50" viewBox="0 0 50 50" fill="none" xmlns="http://www.w3.org/2000/svg">
<path d="M50 39.2853C50 40.9177 48.6768 42.241 47.0444 42.241H2.95557C1.32324 42.241 0 40.9175 0 39.2853V10.7145C0 9.08203 1.32324 7.75879 2.95557 7.75879H47.0443C48.6768 7.75879 49.9999 9.08213 49.9999 10.7145L50 39.2853Z" fill="#E7E8E3"/>
<path opacity="0.15" d="M2.10127 39.2853V10.7145C2.10127 9.08203 3.42471 7.75879 5.05703 7.75879H2.95547C1.32324 7.75879 0 9.08223 0 10.7145V39.2853C0 40.9177 1.32324 42.241 2.95557 42.241H5.05713C3.4248 42.241 2.10127 40.9175 2.10127 39.2853Z" fill="#202121"/>
<path d="M21.9452 21.4054C21.9452 18.8193 23.1364 16.512 25 15.001C23.5836 13.8527 21.7792 13.1638 19.8138 13.1638C15.2621 13.1638 11.5723 16.8536 11.5723 21.4054C11.5723 25.957 15.2621 29.6466 19.8138 29.6466C21.7792 29.6466 23.5836 28.9583 25 27.81C23.1364 26.2985 21.9452 23.9913 21.9452 21.4054Z" fill="#EA001B"/>
<path d="M30.1864 13.1638C28.221 13.1638 26.4164 13.8526 25 15.001C26.8637 16.5119 28.0549 18.8193 28.0549 21.4054C28.0549 23.9913 26.8637 26.2986 25 27.8099C26.4164 28.9581 28.221 29.6465 30.1864 29.6465C34.7381 29.6465 38.4277 25.9569 38.4277 21.4053C38.4277 16.8538 34.7381 13.1638 30.1864 13.1638Z" fill="#0099DF"/>
<path d="M28.0551 21.4051C28.0551 18.819 26.8639 16.5117 25.0002 15.0007C23.1366 16.5116 21.9454 18.819 21.9454 21.4051C21.9454 23.991 23.1366 26.2983 25.0002 27.8096C26.8639 26.2982 28.0551 23.991 28.0551 21.4051Z" fill="#6C6BBD"/>
<path d="M12.3152 33.2642C11.6967 33.2642 11.1038 33.5925 10.7151 34.1469C10.3124 33.5847 9.73347 33.2642 9.11589 33.2642C8.74548 33.2642 8.3363 33.4343 7.98435 33.7332L7.81667 33.423C7.8073 33.4056 7.78884 33.3945 7.76892 33.3945H6.74812C6.71824 33.3945 6.69373 33.4188 6.69373 33.4489V38.1368C6.69373 38.1668 6.71814 38.1912 6.74812 38.1912H8.01082C8.04089 38.1912 8.06521 38.1669 8.06521 38.1368V35.4463C8.20574 34.9105 8.54695 34.5909 8.97908 34.5909C9.51521 34.5909 9.93484 35.1261 9.93484 35.8092V38.1368C9.93484 38.1668 9.95925 38.1912 9.98923 38.1912H11.1679C11.198 38.1912 11.2223 38.1669 11.2223 38.1368V35.7349C11.2422 35.1848 11.6092 34.5909 12.1678 34.5909C12.704 34.5909 13.1236 35.126 13.1236 35.8092V38.1368C13.1236 38.1668 13.148 38.1912 13.178 38.1912H14.3567C14.3868 38.1912 14.4111 38.1669 14.4111 38.1368V35.8092C14.4109 34.4059 13.471 33.2642 12.3152 33.2642Z" fill="#34495E"/>
<path d="M20.1543 33.395H19.1442C19.1192 33.395 19.097 33.4123 19.0913 33.4369L19.0065 33.7966C18.5761 33.4458 18.038 33.2537 17.4814 33.2537C16.1227 33.2537 15.0172 34.3905 15.0172 35.7879C15.0172 37.1853 16.1227 38.3222 17.4814 38.3222C18.0286 38.3222 18.5579 38.1364 18.9846 37.7968V38.1374C18.9846 38.1673 19.009 38.1917 19.039 38.1917H20.1544C20.1845 38.1917 20.2088 38.1674 20.2088 38.1374V33.4495C20.2086 33.4193 20.1844 33.395 20.1543 33.395ZM17.6498 37.0061C17.3485 37.0061 17.0707 36.8839 16.8487 36.6547C16.6334 36.4112 16.515 36.1034 16.515 35.7878C16.515 35.4666 16.6364 35.151 16.847 34.9228C17.0708 34.6917 17.3484 34.5696 17.6499 34.5696C17.9506 34.5696 18.2317 34.6947 18.4422 34.9228C18.6563 35.144 18.774 35.4511 18.774 35.7878C18.774 36.119 18.6589 36.4185 18.4413 36.6539C18.2315 36.881 17.9504 37.0061 17.6498 37.0061Z" fill="#34495E"/>
<path d="M23.3533 33.2317C21.9946 33.2317 20.8889 34.3734 20.8889 35.7768C20.8889 37.1803 21.9946 38.322 23.3533 38.322C24.0792 38.322 24.7581 37.9976 25.216 37.4317C25.2255 37.42 25.2297 37.4047 25.2276 37.3897C25.2254 37.3747 25.2171 37.3614 25.2046 37.3528L24.2155 36.6675C24.1936 36.6524 24.1641 36.6553 24.1454 36.6745C23.9414 36.8852 23.672 37.006 23.4057 37.006C23.1117 37.006 22.8458 36.8807 22.6362 36.6435C22.5451 36.5412 22.4711 36.4206 22.4116 36.2771H25.7209C25.7467 36.2771 25.7688 36.259 25.7741 36.2338C25.804 36.0903 25.8171 35.9493 25.8171 35.7769C25.8172 34.3734 24.712 33.2317 23.3533 33.2317ZM22.3876 35.3417C22.45 35.1726 22.5354 35.0206 22.6354 34.9001C22.8483 34.6696 23.1148 34.5478 23.4058 34.5478C23.6917 34.5478 23.9684 34.6758 24.1652 34.8996C24.2761 35.0233 24.3624 35.175 24.4167 35.3418L22.3876 35.3417Z" fill="#34495E"/>
<path d="M28.7488 35.3016C28.6455 35.2653 28.5432 35.2335 28.4463 35.2034C28.0215 35.0714 27.7826 34.9859 27.8166 34.7615C27.8444 34.5417 27.9816 34.4255 28.2131 34.4255C28.488 34.4255 28.8659 34.5927 29.2771 34.8963C29.2894 34.9052 29.3048 34.9087 29.3198 34.906C29.3347 34.9031 29.3478 34.8942 29.3557 34.8811L29.966 33.8915C29.9817 33.8661 29.9738 33.8327 29.9486 33.8167C29.3372 33.4352 28.906 33.2537 28.1097 33.2537C27.1609 33.2537 26.4453 33.8895 26.4453 34.7328C26.4453 35.6868 27.1094 35.9752 27.9774 36.2529C28.3552 36.3749 28.6026 36.4766 28.6026 36.7666C28.6026 36.9859 28.4383 37.1167 28.1628 37.1167C27.8777 37.1167 27.4087 36.956 27.0253 36.5031C27.0153 36.4914 27.0009 36.4844 26.9854 36.4838C26.9712 36.4848 26.9554 36.4896 26.9444 36.5005L26.1027 37.3816C26.0825 37.4027 26.0827 37.436 26.1029 37.4569C26.6426 38.0147 27.4225 38.3219 28.2993 38.3219C29.2196 38.3219 30.0268 37.6103 30.0268 36.7991C30.0268 36.0953 29.5601 35.5491 28.7488 35.3016Z" fill="#34495E"/>
<path d="M33.9292 33.3951H32.9312V31.7092C32.9312 31.6792 32.9069 31.6548 32.8768 31.6548H31.5403C31.5104 31.6548 31.4859 31.6791 31.4859 31.7092V33.3951H30.593C30.5631 33.3951 30.5386 33.4194 30.5386 33.4495V34.7222C30.5386 34.7521 30.563 34.7766 30.593 34.7766H31.4859V38.1375C31.4859 38.1675 31.5104 38.1919 31.5403 38.1919H32.8768C32.9068 38.1919 32.9312 38.1676 32.9312 38.1375V34.7766H33.9292C33.9593 34.7766 33.9836 34.7522 33.9836 34.7222V33.4495C33.9836 33.4194 33.9593 33.3951 33.9292 33.3951Z" fill="#34495E"/>
<path d="M38.2827 33.4095C38.0391 33.322 37.7671 33.2759 37.496 33.2759C36.8508 33.2759 36.3041 33.4921 35.978 33.8724L35.8212 33.4315C35.8136 33.4099 35.7932 33.3954 35.77 33.3954H34.7492C34.7193 33.3954 34.6948 33.4197 34.6948 33.4498V38.1377C34.6948 38.1677 34.7192 38.1921 34.7492 38.1921H36.0646C36.0947 38.1921 36.119 38.1678 36.119 38.1377L36.1182 35.5587C36.2188 35.0069 36.6861 34.6065 37.2294 34.6065C37.3967 34.6065 37.564 34.6438 37.7264 34.7174C37.7395 34.7235 37.7546 34.7237 37.7684 34.7186C37.782 34.7132 37.7932 34.7026 37.7988 34.6892L38.3144 33.4818C38.3202 33.4681 38.3202 33.4524 38.3142 33.4388C38.3083 33.4253 38.2968 33.4145 38.2827 33.4095Z" fill="#34495E"/>
<path d="M41.0321 33.2537C39.6213 33.2537 38.4731 34.3905 38.4731 35.7879C38.4731 37.1853 39.6213 38.3222 41.0321 38.3222C42.473 38.3222 43.6016 37.209 43.6016 35.7879C43.6016 34.3905 42.449 33.2537 41.0321 33.2537ZM41.0426 37.0169C40.7433 37.0169 40.459 36.8889 40.2609 36.6637C40.0335 36.4288 39.9184 36.134 39.9184 35.7878C39.9184 35.4485 40.0397 35.1417 40.2636 34.9202C40.4567 34.6905 40.7408 34.5587 41.0427 34.5587C41.3518 34.5587 41.6216 34.681 41.8447 34.922C42.0525 35.147 42.167 35.4507 42.167 35.777C42.167 36.1142 42.0523 36.4297 41.8456 36.6637C41.6186 36.8981 41.3484 37.0169 41.0426 37.0169Z" fill="#34495E"/>
</svg>
