<svg width="50" height="50" viewBox="0 0 50 50" fill="none" xmlns="http://www.w3.org/2000/svg">
<path d="M50 39.2853C50 40.9177 48.6768 42.241 47.0444 42.241H2.95557C1.32324 42.241 0 40.9176 0 39.2853V10.7145C0 9.08203 1.32324 7.75879 2.95557 7.75879H47.0444C48.6769 7.75879 50 9.08213 50 10.7145V39.2853Z" fill="#92DBEF"/>
<path opacity="0.15" d="M2.10127 39.2853V10.7145C2.10127 9.08203 3.42471 7.75879 5.05703 7.75879H2.95547C1.32324 7.75879 0 9.08203 0 10.7145V39.2853C0 40.9177 1.32324 42.241 2.95557 42.241H5.05713C3.4248 42.241 2.10127 40.9176 2.10127 39.2853Z" fill="#202121"/>
<path d="M32.464 14.4988C31.3683 13.2464 29.3334 12.6206 26.5162 12.6206H18.6898C18.2199 12.6206 17.7507 13.0905 17.5941 13.5594L14.4635 34.064C14.4635 34.5342 14.7767 34.8466 15.0892 34.8466H19.9414L21.1937 27.1772V27.4903C21.3505 27.0203 21.8196 26.5514 22.2896 26.5514H24.6377C29.1767 26.5514 32.6195 24.6731 33.7154 19.5072V19.0377C33.5589 19.0377 33.5589 19.0377 33.7154 19.0377C33.8721 17.0034 33.559 15.751 32.464 14.4988Z" fill="#263B80"/>
<path d="M33.7155 19.5079V19.0384C33.7166 19.0229 33.7173 19.0084 33.7183 18.993C33.44 18.7995 33.1792 18.6646 32.9799 18.5771C32.0295 18.1844 31.0576 18.1104 30.609 18.0991L30.6067 18.0972H28.324C28.324 18.0972 28.326 18.0983 28.327 18.099H23.5389C22.7248 18.1286 22.5004 18.785 22.4416 19.0705L21.1938 27.178V27.3704V27.491C21.3507 27.021 21.8197 26.5521 22.2897 26.5521H24.6379C29.1769 26.5521 32.6196 24.6737 33.7155 19.5079Z" fill="#232C65"/>
<path d="M35.2539 20.9775C34.9001 20.0016 34.2743 19.3781 33.719 18.9919C33.7179 19.0074 33.7172 19.0218 33.7163 19.0374V19.5069C32.6204 24.6727 29.1776 26.551 24.6386 26.551H22.2905C21.8205 26.551 21.3514 27.0199 21.1946 27.49V27.3693C21.1767 27.4093 21.1602 27.4497 21.1467 27.49L20.2624 32.8852L19.9422 34.8463H19.9411L19.5818 37.0379C19.5818 37.3508 19.7385 37.6632 20.2076 37.6632H24.1092C24.8942 37.6632 25.1408 37.0526 25.2166 36.7236L25.2497 36.5192V36.5191L25.9989 31.8722C25.9989 31.8722 26.0965 30.7766 27.1654 30.7766H27.5647C31.4778 30.7766 34.6083 29.2117 35.3908 24.5162C35.6084 23.2071 35.5976 21.9753 35.2539 20.9775Z" fill="#139AD6"/>
</svg>
