<svg width="41" height="41" viewBox="0 0 41 41" fill="none" xmlns="http://www.w3.org/2000/svg">
<g clip-path="url(#clip0)">
<path d="M29.6316 23.7153C28.6284 23.5834 27.639 23.3374 26.6933 22.9849C25.6437 22.5927 24.4506 22.8455 23.6504 23.6347L22.6275 24.6549C20.3308 23.2575 18.3991 21.3298 16.9976 19.0379L18.022 18.0157C18.8105 17.2189 19.0654 16.0272 18.6711 14.9804C18.3172 14.0339 18.0705 13.0472 17.938 12.04C17.7364 10.616 16.5064 9.53222 15.0625 9.5657H11.7642C11.6781 9.5657 11.592 9.56978 11.5073 9.57803C10.7406 9.64633 10.047 10.0099 9.55364 10.5996C9.06028 11.1906 8.82662 11.9375 8.89692 12.7138C9.26728 16.1953 10.4713 19.5887 12.3751 22.5222C14.1052 25.2398 16.4586 27.5891 19.1769 29.313C22.1063 31.2086 25.4901 32.4106 28.9765 32.7885C29.0653 32.7966 29.1542 32.8001 29.2457 32.8001C30.0158 32.7974 30.7381 32.4953 31.2807 31.948C31.8232 31.4027 32.1198 30.6784 32.1171 29.9123V26.6284C32.1489 25.1708 31.0842 23.9197 29.6316 23.7153ZM30.7515 26.6222V29.9165C30.7529 30.3197 30.597 30.6996 30.3121 30.9866C30.0272 31.2736 29.6472 31.4321 29.2448 31.4335C29.1956 31.4335 29.1464 31.4314 29.1108 31.4287C25.85 31.0754 22.6725 29.9465 19.9153 28.1624C17.3604 26.5422 15.1518 24.3379 13.5255 21.7843C11.7345 19.025 10.6043 15.8393 10.2572 12.5812C10.2203 12.1794 10.3433 11.7872 10.6022 11.4777C10.8619 11.1675 11.2268 10.9768 11.6313 10.9406C11.6758 10.9365 11.7201 10.9338 11.7646 10.9338H15.0698C15.0739 10.9338 15.0794 10.9338 15.0842 10.9338C15.8359 10.9338 16.4795 11.49 16.5855 12.228C16.731 13.3309 17.0023 14.4188 17.3931 15.4629C17.5995 16.0129 17.4662 16.6382 17.0549 17.053L15.6588 18.447C15.4401 18.6643 15.395 19.0012 15.5474 19.269C17.1731 22.122 19.5428 24.487 22.4005 26.1084C22.6677 26.2595 23.0032 26.215 23.2205 25.9978L24.6145 24.6072C25.034 24.1938 25.6607 24.0585 26.2155 24.2676C27.2589 24.6564 28.3489 24.9271 29.4483 25.0719C30.2103 25.1792 30.7706 25.8386 30.7514 26.606C30.7515 26.6106 30.7515 26.6168 30.7515 26.6222Z" fill="#FC9D9D"/>
<path d="M20.5001 0.000976562C9.19656 0.000976562 0.000339856 9.1972 0.000339856 20.5007C0.000339856 24.41 1.10324 28.1998 3.1935 31.4859L0.04198 40.0821C-0.0489076 40.3281 0.00986905 40.6048 0.193006 40.7928C0.324172 40.9281 0.501863 41.0005 0.683638 41.0005C0.756108 41.0005 0.829219 40.9889 0.899607 40.9657L9.81636 37.9939C13.0321 39.9612 16.7186 41.0006 20.5002 41.0006C31.8037 41.0006 40.9999 31.8044 40.9999 20.5008C40.9999 9.19728 31.8036 0.000976562 20.5001 0.000976562ZM20.5007 39.6338C16.8696 39.6338 13.332 38.6075 10.2714 36.6662C10.1607 36.5965 10.0335 36.5602 9.90509 36.5602C9.83198 36.5602 9.75951 36.5718 9.68912 36.5958L1.81377 39.2205L4.59493 31.6355C4.6694 31.4319 4.64346 31.2051 4.5239 31.024C2.45887 27.8964 1.36766 24.2577 1.36766 20.5008C1.36766 9.95097 9.95089 1.36773 20.5007 1.36773C31.0506 1.36773 39.6338 9.95097 39.6338 20.5008C39.6338 31.0507 31.0506 39.6338 20.5007 39.6338Z" fill="#FC9D9D"/>
</g>
<defs>
<clipPath id="clip0">
<rect width="41" height="41" fill="white"/>
</clipPath>
</defs>
</svg>
