<svg width="50" height="50" viewBox="0 0 50 50" fill="none" xmlns="http://www.w3.org/2000/svg">
<path d="M50 39.2852C50 40.9176 48.6768 42.2409 47.0444 42.2409H2.95557C1.32324 42.241 0 40.9176 0 39.2852V10.7145C0 9.08203 1.32324 7.75879 2.95557 7.75879H47.0444C48.6769 7.75879 50 9.08213 50 10.7145V39.2852Z" fill="white"/>
<path d="M11.0977 25.1983L9.92368 19.5664C9.723 18.7897 9.13901 18.5586 8.40933 18.5281H3.02671L2.97876 18.7854C7.17104 19.8017 9.94497 22.2535 11.0977 25.1983Z" fill="#F79F1A"/>
<path d="M23.5697 18.6414H20.0919L17.9198 31.3881H21.3919L23.5697 18.6414Z" fill="#059BBF"/>
<path d="M13.2173 31.3754L18.687 18.6501H15.0063L11.6036 27.3443L11.2405 26.0316C10.5735 24.4524 8.66721 22.1794 6.42932 20.7486L9.53967 31.3797L13.2173 31.3754Z" fill="#059BBF"/>
<path d="M33.489 27.2215C33.5019 25.7744 32.5727 24.6706 30.5704 23.7588C29.3535 23.17 28.6118 22.7773 28.6207 22.1797C28.6207 21.6518 29.2488 21.0847 30.6097 21.0847C31.7485 21.0672 32.5684 21.3159 33.2097 21.5733L33.524 21.7173L33.9953 18.9559C33.3059 18.6984 32.2283 18.4236 30.8805 18.4236C27.4472 18.4236 25.0305 20.1512 25.0086 22.6291C24.9868 24.4614 26.7364 25.4822 28.0537 26.0928C29.4059 26.7153 29.8596 27.1136 29.8509 27.672C29.8422 28.5258 28.7733 28.9152 27.7744 28.9152C26.3828 28.9152 25.6455 28.7233 24.502 28.2469L24.0577 28.0428L23.5696 30.8992C24.3804 31.2536 25.8809 31.5633 27.4385 31.5762C31.0896 31.5762 33.4629 29.8706 33.489 27.2215Z" fill="#059BBF"/>
<path d="M37.6207 29.4778C38.0176 29.4778 41.5642 29.4822 42.0705 29.4822C42.1751 29.9261 42.4936 31.3929 42.4936 31.3929H45.7173L42.9036 18.6548H40.2208C39.3875 18.6548 38.7682 18.8816 38.4016 19.7104L33.241 31.3929H36.8925C36.8922 31.3929 37.4854 29.8227 37.6207 29.4778ZM40.0024 23.305C39.9852 23.3398 40.2905 22.5678 40.465 22.0879L40.7004 23.1871C40.7004 23.1871 41.3637 26.2322 41.5032 26.8692H38.6196C38.9076 26.1363 40.0024 23.305 40.0024 23.305Z" fill="#059BBF"/>
<path d="M47.0444 7.75879H2.95557C1.32324 7.75879 0 9.08203 0 10.7145V13.782H50V10.7145C50 9.08203 48.6769 7.75879 47.0444 7.75879Z" fill="#059BBF"/>
<path d="M47.0444 42.241H2.95557C1.32324 42.241 0 40.9177 0 39.2854V36.2178H50V39.2854C50 40.9177 48.6769 42.241 47.0444 42.241Z" fill="#F79F1A"/>
<path opacity="0.15" d="M2.10127 39.2852V10.7145C2.10127 9.08203 3.42461 7.75879 5.05703 7.75879H2.95547C1.32324 7.75879 0 9.08203 0 10.7145V39.2853C0 40.9177 1.32324 42.241 2.95557 42.241H5.05713C3.42471 42.241 2.10127 40.9176 2.10127 39.2852Z" fill="#202121"/>
</svg>
