<svg width="50" height="50" fill="none" xmlns="http://www.w3.org/2000/svg"><path d="M50 39.285a2.956 2.956 0 01-2.956 2.956H2.956A2.956 2.956 0 010 39.285v-28.57a2.956 2.956 0 012.956-2.956h44.088A2.956 2.956 0 0150 10.714v28.571z" fill="#306FC5"/><path opacity=".15" d="M2.101 39.285v-28.57a2.956 2.956 0 012.956-2.956H2.955A2.956 2.956 0 000 10.714v28.571a2.956 2.956 0 002.956 2.956h2.101a2.956 2.956 0 01-2.956-2.956z" fill="#202121"/><path d="M7.284 21.557h1.494l-.747-1.901-.747 1.901zm7.945 6.383v.883h2.512v.95H15.23v1.02h2.784l1.29-1.427-1.222-1.426H15.23zm19.624-8.284l-.814 1.901H35.6l-.748-1.901zM22.495 31.335v-3.87l-1.765 1.901 1.765 1.97zm3.327-2.784c-.068-.407-.34-.611-.747-.611h-1.426v1.222h1.494c.407 0 .68-.204.68-.61zm4.753.475c.136-.068.204-.272.204-.475.068-.271-.068-.407-.204-.475-.135-.068-.34-.068-.543-.068h-1.358v1.086h1.358c.203 0 .407 0 .543-.068z" fill="#fff"/><path d="M40.353 17.89v.815l-.407-.815h-3.191v.815l-.408-.815h-4.346c-.747 0-1.358.136-1.901.408v-.408h-3.056v.408c-.339-.272-.746-.408-1.29-.408H14.822l-.747 1.698-.747-1.698H9.865v.815l-.34-.815H6.537L5.18 21.081l-1.562 3.464-.028.068h3.535l.024-.068.408-1.019h.883l.407 1.087h3.938v-.815l.34.815h1.97l.338-.815v.815h9.439v-1.766h.137c.135 0 .135 0 .135.204v1.494h4.89v-.408c.407.204 1.017.408 1.832.408h2.038l.407-1.087h.95l.408 1.087h3.938v-1.019l.612 1.019h3.191V17.89h-3.056zm-23.019 5.704h-1.087V19.86l-.067.156v-.002l-1.58 3.581h-1.001l-1.63-3.735v3.735H9.662l-.475-1.018h-2.31l-.475 1.018H5.208l2.008-4.753h1.698l1.901 4.55v-4.55h1.799l.032.068h.002l.857 1.865.615 1.397.022-.07 1.358-3.26h1.834v4.753zm4.686-3.735h-2.65v.883h2.58v.95h-2.58v.952h2.649v1.018h-3.803v-4.821h3.803v1.018zm4.843 1.751l.006.005a.761.761 0 01.066.08c.13.17.236.424.24.796l.002.02v.016c.002.037.003.075.003.117v.95h-1.018v-.543c0-.272 0-.68-.204-.95a.617.617 0 00-.2-.137c-.102-.066-.295-.067-.615-.067H23.92v1.697h-1.154v-4.753h2.58c.612 0 1.02 0 1.359.204.333.2.534.53.541 1.056-.015.722-.48 1.119-.813 1.252 0 0 .227.046.43.257zm2.287 1.984h-1.155v-4.753h1.154v4.753zm13.24 0h-1.493l-2.173-3.599v2.988l-.007-.007v.621H37.57v-.003h-1.155l-.407-1.018H33.63l-.408 1.086h-1.29c-.543 0-1.222-.136-1.63-.543-.407-.407-.61-.95-.61-1.833 0-.68.135-1.359.61-1.902.34-.407.951-.543 1.698-.543h1.087v1.018H32c-.407 0-.61.068-.883.272-.203.204-.339.611-.339 1.087 0 .543.068.882.34 1.154.203.204.475.272.814.272h.475l1.562-3.735h1.698l1.901 4.55v-4.55h1.698l1.969 3.327V18.91h1.155v4.686z" fill="#fff"/><path d="M25.894 20.82a.735.735 0 00.147-.585.384.384 0 00-.01-.061c-.001-.006 0-.01-.002-.016h-.001a.38.38 0 00-.206-.23c-.136-.069-.34-.069-.543-.069H23.92v1.087h1.358c.204 0 .408 0 .544-.068a.256.256 0 00.056-.04l.016-.017zm20.503 9.564a2.6 2.6 0 00-.34-1.29V26.04h-.003v-.204h-3.27c-.423 0-.937.407-.937.407v-.407h-3.123c-.476 0-1.086.136-1.358.407v-.407h-5.569v.406c-.407-.34-1.154-.407-1.493-.407h-3.667v.407c-.34-.34-1.155-.408-1.563-.408h-4.073l-.951 1.02-.883-1.02h-6.111v6.859h5.976l.981-.982.851.982h3.803v-1.562h.34c.475 0 1.086 0 1.562-.204v1.834h3.056v-1.766h.135c.204 0 .204 0 .204.204v1.562h9.235c.611 0 1.222-.136 1.561-.408v.408h2.92c.611 0 1.223-.068 1.63-.34.625-.375 1.02-1.039 1.078-1.83l.008-.071-.004-.004c.003-.044.005-.087.005-.131zm-21.39-.407H23.65v1.765h-2.232l-1.3-1.494-.004.005-.063-.073-1.494 1.563H14.21v-4.754h4.414l1.206 1.321.253.277.035-.036 1.426-1.562h3.599c.698 0 1.48.173 1.777.883.035.141.056.297.056.475 0 1.358-.95 1.63-1.969 1.63zm6.79-.068c.136.203.204.475.204.883v.95h-1.154v-.61c0-.273 0-.748-.204-.952-.136-.203-.408-.203-.815-.203h-1.222v1.765h-1.154v-4.82h2.58c.543 0 1.018 0 1.358.203a1.2 1.2 0 01.611 1.087c0 .746-.475 1.154-.815 1.29.34.135.544.271.611.407zm4.686-1.97h-2.649v.883h2.58v.951h-2.58v.95h2.65v1.02H32.68V26.92h3.803v1.018zm2.852 3.803h-2.173v-1.018h2.173c.203 0 .34 0 .475-.136a.518.518 0 00.136-.34.517.517 0 00-.136-.339c-.068-.068-.204-.136-.407-.136-1.087-.068-2.377 0-2.377-1.493 0-.68.407-1.427 1.63-1.427h2.24v1.155h-2.104c-.204 0-.34 0-.476.068-.136.068-.136.204-.136.34 0 .203.136.271.272.338.136.069.272.069.407.069h.611c.612 0 1.019.135 1.29.407.204.204.34.543.34 1.018 0 1.019-.61 1.494-1.765 1.494zm5.84-.475c-.272.272-.747.476-1.427.476h-2.172v-1.019h2.172c.204 0 .34 0 .476-.136a.52.52 0 00.136-.34.519.519 0 00-.136-.339c-.068-.068-.204-.136-.407-.136-1.087-.068-2.377 0-2.377-1.493 0-.646.369-1.229 1.28-1.402.109-.015.224-.025.35-.025h2.24v1.155h-2.105c-.203 0-.339 0-.475.068a.518.518 0 00-.136.34c0 .203.068.271.272.338.136.069.272.069.407.069h.611c.297 0 .522.036.727.108.188.068.81.347.95 1.074.012.076.02.155.02.244 0 .407-.135.747-.406 1.018z" fill="#fff"/></svg>