<svg width="59" height="45" fill="none" xmlns="http://www.w3.org/2000/svg"><g filter="url(#filter0_d)"><path d="M43.658 11.305l-1.855 3.131-5.682-1.882L25.95 29.716l-4.22-1.398 10.173-17.162-5.682-1.882 1.856-3.13 15.582 5.161z" fill="#FC9D9D"/></g><path d="M57.191 10.112c-1.244-.206-2.473.382-2.747 1.311l-3.989 13.519c-.47 1.592-2.31 2.704-4.477 2.704-1.273 0-2.305.771-2.305 1.723 0 .951 1.032 1.723 2.305 1.723 2.093 0 4.14-.54 5.767-1.522 1.62-.979 2.76-2.358 3.211-3.886l3.99-13.519c.273-.929-.512-1.848-1.755-2.053z" fill="#001E67"/><path d="M45.978 34.625H15.787c-1.27 0-2.305-.773-2.305-1.723 0-.015-.002-.029-.003-.043 0-.015.003-.029.003-.044 0-.95 1.034-1.722 2.305-1.722h18.668c1.273 0 2.305-.772 2.305-1.724 0-.951-1.032-1.723-2.305-1.723H17.509l-2.73-18.748-.006-.038C13.955 4.198 8.594.682 2.305.682 1.032.682 0 1.453 0 2.405c0 .951 1.032 1.723 2.305 1.723 3.976 0 7.366 2.218 7.895 5.162l2.74 18.817c-2.396.813-4.067 2.617-4.067 4.708 0 .015.002.029.003.044l-.003.042c0 2.85 3.102 5.17 6.914 5.17h.94a3.92 3.92 0 00-.364 1.636c0 2.803 3.05 5.083 6.799 5.083 3.749 0 6.799-2.28 6.799-5.083a3.93 3.93 0 00-.364-1.636h9.946a3.922 3.922 0 00-.364 1.636c0 2.803 3.05 5.083 6.8 5.083 3.748 0 6.798-2.28 6.798-5.083 0-2.802-3.05-5.083-6.799-5.082zm-22.816 6.72c-1.207 0-2.19-.735-2.19-1.638 0-.902.983-1.636 2.19-1.636 1.207 0 2.19.734 2.19 1.636 0 .903-.983 1.637-2.19 1.637zm22.816 0c-1.207 0-2.19-.735-2.19-1.638 0-.902.983-1.636 2.19-1.636 1.207 0 2.19.734 2.19 1.636 0 .903-.983 1.637-2.19 1.637z" fill="#001E67"/><defs><filter id="filter0_d" x="19.73" y="4.143" width="29.929" height="31.573" filterUnits="userSpaceOnUse" color-interpolation-filters="sRGB"><feFlood flood-opacity="0" result="BackgroundImageFix"/><feColorMatrix in="SourceAlpha" values="0 0 0 0 0 0 0 0 0 0 0 0 0 0 0 0 0 0 127 0" result="hardAlpha"/><feOffset dx="2" dy="2"/><feGaussianBlur stdDeviation="2"/><feColorMatrix values="0 0 0 0 0.8875 0 0 0 0 0.547292 0 0 0 0 0.547292 0 0 0 0.57 0"/><feBlend in2="BackgroundImageFix" result="effect1_dropShadow"/><feBlend in="SourceGraphic" in2="effect1_dropShadow" result="shape"/></filter></defs></svg>