<svg width="50" height="50" fill="none" xmlns="http://www.w3.org/2000/svg"><path d="M50 39.285a2.956 2.956 0 01-2.956 2.956H2.956A2.956 2.956 0 010 39.285v-28.57a2.956 2.956 0 012.956-2.956h44.088A2.956 2.956 0 0150 10.714v28.571z" fill="#E7E8E3"/><path opacity=".15" d="M2.101 39.285v-28.57a2.956 2.956 0 012.956-2.956H2.955A2.956 2.956 0 000 10.714v28.571a2.956 2.956 0 002.956 2.956h2.101a2.956 2.956 0 01-2.956-2.956z" fill="#202121"/><path d="M21.945 21.405A8.224 8.224 0 0125 15.001a8.241 8.241 0 100 12.809 8.226 8.226 0 01-3.055-6.405z" fill="#EA001B"/><path d="M30.186 13.164c-1.965 0-3.77.689-5.186 1.837a8.224 8.224 0 013.055 6.404A8.225 8.225 0 0125 27.81a8.241 8.241 0 0013.428-6.405 8.241 8.241 0 00-8.242-8.241z" fill="#0099DF"/><path d="M28.055 21.405A8.224 8.224 0 0025 15.001a8.224 8.224 0 00-3.055 6.404A8.225 8.225 0 0025 27.81a8.225 8.225 0 003.055-6.405z" fill="#6C6BBD"/><path d="M12.315 33.264c-.618 0-1.211.328-1.6.883-.403-.562-.982-.883-1.6-.883-.37 0-.779.17-1.13.47l-.168-.311a.054.054 0 00-.048-.029h-1.02a.054.054 0 00-.055.055v4.688c0 .03.024.054.054.054h1.263c.03 0 .054-.024.054-.054v-2.69c.14-.537.482-.856.914-.856.536 0 .956.535.956 1.218v2.328c0 .03.024.054.054.054h1.179c.03 0 .054-.024.054-.054v-2.402c.02-.55.387-1.144.946-1.144.536 0 .956.535.956 1.218v2.328c0 .03.024.054.054.054h1.179c.03 0 .054-.024.054-.054v-2.328c0-1.403-.94-2.545-2.096-2.545zm7.839.131h-1.01a.054.054 0 00-.053.042l-.085.36a2.413 2.413 0 00-1.525-.543c-1.358 0-2.464 1.137-2.464 2.534 0 1.397 1.106 2.534 2.464 2.534.548 0 1.077-.186 1.504-.525v.34c0 .03.024.055.054.055h1.115c.03 0 .055-.025.055-.055V33.45a.055.055 0 00-.055-.054zm-2.504 3.611a1.1 1.1 0 01-.801-.351 1.31 1.31 0 01-.334-.867c0-.321.121-.637.332-.865.224-.231.501-.353.803-.353.3 0 .582.125.792.353.214.221.332.528.332.865 0 .331-.115.63-.333.866a1.07 1.07 0 01-.791.352zm5.703-3.774c-1.358 0-2.464 1.141-2.464 2.545 0 1.403 1.106 2.545 2.464 2.545.726 0 1.405-.324 1.863-.89a.054.054 0 00-.011-.079l-.99-.686a.054.054 0 00-.07.008c-.204.21-.473.331-.74.331a1.01 1.01 0 01-.769-.362 1.278 1.278 0 01-.224-.367h3.309a.054.054 0 00.053-.043c.03-.144.043-.285.043-.457 0-1.404-1.105-2.545-2.464-2.545zm-.965 2.11a1.52 1.52 0 01.247-.442c.213-.23.48-.352.77-.352.287 0 .563.128.76.352.111.123.197.275.252.442h-2.03zm6.361-.04a8.597 8.597 0 00-.303-.099c-.425-.132-.663-.217-.63-.442.028-.22.166-.336.397-.336.275 0 .653.168 1.064.471a.056.056 0 00.043.01.054.054 0 00.036-.025l.61-.99a.055.055 0 00-.017-.074c-.612-.382-1.043-.563-1.84-.563-.948 0-1.664.636-1.664 1.479 0 .954.664 1.242 1.532 1.52.378.122.626.224.626.514 0 .219-.165.35-.44.35-.285 0-.754-.161-1.138-.614a.055.055 0 00-.04-.02.065.065 0 00-.04.018l-.842.88a.054.054 0 000 .076c.54.558 1.32.865 2.196.865.92 0 1.728-.712 1.728-1.523 0-.704-.467-1.25-1.278-1.497zm5.181-1.907h-.999V31.71a.054.054 0 00-.054-.054H31.54a.054.054 0 00-.054.054v1.686h-.893a.054.054 0 00-.054.054v1.273c0 .03.024.055.054.055h.893v3.36c0 .03.024.055.054.055h1.337c.03 0 .054-.024.054-.054v-3.361h.998c.03 0 .055-.025.055-.055V33.45a.054.054 0 00-.055-.054zm4.353.015a2.352 2.352 0 00-.787-.134c-.645 0-1.192.216-1.518.596l-.157-.44a.054.054 0 00-.051-.037h-1.02a.054.054 0 00-.055.055v4.688c0 .03.024.054.054.054h1.316c.03 0 .054-.024.054-.054v-2.58c.1-.551.567-.952 1.11-.952.168 0 .335.038.497.111a.055.055 0 00.073-.028l.515-1.207a.054.054 0 00-.031-.072zm2.749-.156c-1.41 0-2.559 1.137-2.559 2.534 0 1.397 1.148 2.534 2.56 2.534 1.44 0 2.569-1.113 2.569-2.534 0-1.397-1.153-2.534-2.57-2.534zm.01 3.763a1.04 1.04 0 01-.781-.353 1.216 1.216 0 01-.343-.876c0-.34.122-.646.346-.868.193-.23.477-.361.779-.361.309 0 .579.122.802.363.208.225.322.529.322.855 0 .337-.115.653-.321.887a1.087 1.087 0 01-.803.353z" fill="#34495E"/></svg>