<svg width="50" height="50" fill="none" xmlns="http://www.w3.org/2000/svg"><path d="M50 39.285a2.956 2.956 0 01-2.956 2.956H2.956A2.956 2.956 0 010 39.285v-28.57a2.956 2.956 0 012.956-2.956h44.088A2.956 2.956 0 0150 10.714v28.571z" fill="#92DBEF"/><path opacity=".15" d="M2.101 39.285v-28.57a2.956 2.956 0 012.956-2.956H2.955A2.956 2.956 0 000 10.714v28.571a2.956 2.956 0 002.956 2.956h2.101a2.956 2.956 0 01-2.956-2.956z" fill="#202121"/><path d="M32.464 14.499c-1.096-1.253-3.13-1.878-5.948-1.878H18.69c-.47 0-.94.47-1.096.938l-3.13 20.505c0 .47.313.783.625.783h4.852l1.253-7.67v.313c.157-.47.626-.939 1.096-.939h2.348c4.539 0 7.982-1.878 9.077-7.044v-.47c-.156 0-.156 0 0 0 .157-2.034-.156-3.286-1.251-4.538z" fill="#263B80"/><path d="M33.715 19.508v-.47l.003-.045a4.427 4.427 0 00-.738-.416c-.95-.393-1.922-.467-2.371-.478l-.002-.002h-2.283l.003.002h-4.788c-.814.03-1.039.686-1.097.971l-1.248 8.108v.313c.157-.47.626-.939 1.096-.939h2.348c4.539 0 7.982-1.878 9.077-7.044z" fill="#232C65"/><path d="M35.254 20.977a4.094 4.094 0 00-1.535-1.985l-.003.045v.47c-1.096 5.166-4.538 7.044-9.077 7.044H22.29c-.47 0-.94.469-1.096.939v-.12a1.2 1.2 0 00-.048.12l-.885 5.395-.32 1.961-.36 2.192c0 .313.156.625.626.625h3.901c.785 0 1.032-.61 1.108-.94l.033-.204.749-4.647s.098-1.095 1.166-1.095h.4c3.913 0 7.043-1.565 7.826-6.26.217-1.31.207-2.542-.137-3.54z" fill="#139AD6"/></svg>