<svg width="41" height="41" fill="none" xmlns="http://www.w3.org/2000/svg"><g clip-path="url(#clip0)" fill="#FC9D9D"><path d="M29.632 23.715a13.448 13.448 0 01-2.939-.73 2.9 2.9 0 00-3.043.65l-1.022 1.02a16.896 16.896 0 01-5.63-5.617l1.024-1.022a2.883 2.883 0 00.65-3.036 13.38 13.38 0 01-.734-2.94c-.202-1.424-1.432-2.508-2.875-2.474h-3.299a2.862 2.862 0 00-2.21 1.034 2.865 2.865 0 00-.657 2.114 22.475 22.475 0 003.478 9.808 22.236 22.236 0 006.802 6.791 22.595 22.595 0 009.8 3.476 2.86 2.86 0 002.304-.84c.542-.546.839-1.27.836-2.037v-3.284a2.88 2.88 0 00-2.485-2.913zm1.12 2.907v3.294c0 .404-.155.784-.44 1.07a1.503 1.503 0 01-1.201.443 21.21 21.21 0 01-9.196-3.267 20.883 20.883 0 01-6.39-6.378 21.1 21.1 0 01-3.268-9.203 1.508 1.508 0 011.507-1.647h3.32a1.52 1.52 0 011.502 1.294 14.71 14.71 0 00.807 3.235c.206.55.073 1.175-.338 1.59l-1.396 1.394a.683.683 0 00-.112.822 18.264 18.264 0 006.854 6.84.684.684 0 00.82-.111l1.393-1.39a1.521 1.521 0 011.601-.34c1.044.388 2.134.66 3.233.804a1.512 1.512 0 011.303 1.534v.016z"/><path d="M20.5.001C9.197.001 0 9.197 0 20.501 0 24.41 1.103 28.2 3.193 31.486L.042 40.082a.68.68 0 00.642.919.69.69 0 00.216-.035l8.916-2.972A20.443 20.443 0 0020.5 41C31.804 41 41 31.804 41 20.5 41 9.197 31.804 0 20.5 0zm0 39.633a19.068 19.068 0 01-10.229-2.968.688.688 0 00-.582-.07L1.814 39.22l2.78-7.585a.683.683 0 00-.07-.612A19.042 19.042 0 011.368 20.5C1.368 9.95 9.95 1.368 20.5 1.368s19.133 8.583 19.133 19.133c0 10.55-8.583 19.133-19.133 19.133z"/></g><defs><clipPath id="clip0"><path fill="#fff" d="M0 0h41v41H0z"/></clipPath></defs></svg>