<svg width="50" height="50" fill="none" xmlns="http://www.w3.org/2000/svg"><path d="M50 39.285a2.956 2.956 0 01-2.956 2.956H2.956A2.956 2.956 0 010 39.285v-28.57a2.956 2.956 0 012.956-2.956h44.088A2.956 2.956 0 0150 10.714v28.571z" fill="#fff"/><path d="M11.098 25.198l-1.174-5.632c-.201-.776-.785-1.007-1.515-1.038H3.027l-.048.257c4.192 1.017 6.966 3.468 8.119 6.413z" fill="#F79F1A"/><path d="M23.57 18.641h-3.478L17.92 31.388h3.472l2.178-12.747zM13.217 31.375l5.47-12.725h-3.68l-3.403 8.694-.363-1.312c-.668-1.58-2.574-3.853-4.812-5.283l3.11 10.63 3.678-.004zm20.272-4.154c.013-1.447-.916-2.55-2.919-3.462-1.216-.589-1.958-.982-1.95-1.58 0-.527.629-1.094 1.99-1.094a6.414 6.414 0 012.6.488l.314.144.471-2.761c-.69-.258-1.767-.532-3.114-.532-3.434 0-5.85 1.727-5.872 4.205-.022 1.832 1.727 2.853 3.045 3.464 1.352.622 1.806 1.02 1.797 1.579-.009.854-1.078 1.243-2.077 1.243-1.391 0-2.129-.192-3.272-.668l-.444-.204-.488 2.856c.81.355 2.31.664 3.869.677 3.65 0 6.024-1.705 6.05-4.355zm4.131 2.257l4.45.004c.105.444.424 1.91.424 1.91h3.223l-2.813-12.737H40.22c-.833 0-1.453.227-1.82 1.055l-5.16 11.683h3.651s.593-1.57.729-1.915zm2.382-6.173c-.017.035.288-.737.463-1.217l.235 1.1.803 3.681H38.62c.288-.733 1.382-3.564 1.382-3.564zm7.042-15.546H2.956A2.956 2.956 0 000 10.714v3.068h50v-3.068a2.955 2.955 0 00-2.956-2.955z" fill="#059BBF"/><path d="M47.044 42.241H2.956A2.956 2.956 0 010 39.285v-3.067h50v3.067a2.956 2.956 0 01-2.956 2.956z" fill="#F79F1A"/><path opacity=".15" d="M2.101 39.285v-28.57a2.956 2.956 0 012.956-2.956H2.955A2.956 2.956 0 000 10.714v28.571a2.956 2.956 0 002.956 2.956h2.101a2.956 2.956 0 01-2.956-2.956z" fill="#202121"/></svg>